# xmcd
#
# Track frame offsets:
#	150
#	26119
#	50109
#	68332
#	95901
#	120154
#	148069
#	171588
#	192799
#	217024
#
# Disc length: 3181 seconds
#
# Revision: 5
# Processed by: cddbd v1.5.2PL0 Copyright (c) Steve Scherf et al.
# Submitted via: audiograbber 1.83.01
#
DISCID=970c6b0a
DTITLE=Nils Landgren Funk Unit - Unbreakable
DYEAR=2017
DGENRE=Funk
TTITLE0=Unbreakable [with Ray Parker Jr.]
TTITLE1=Just A Kiss Away [with Ray Parker Jr.]
TTITLE2=Get Down On The Funk
TTITLE3=Friday Night
TTITLE4=Stars In Your Eyes [with Ray Parker Jr.]
TTITLE5=Rockin' After Midnight [with Ray Parker Jr.]
TTITLE6=Soulchild
TTITLE7=Old School
TTITLE8=NLFU Funk
TTITLE9=Bow Down [with Ray Parker Jr.]
EXTD=
EXTT0=
EXTT1=
EXTT2=
EXTT3=
EXTT4=
EXTT5=
EXTT6=
EXTT7=
EXTT8=
EXTT9=
PLAYORDER=
